<mxfile host="65bd71144e">
    <diagram name="Page-1" id="u8FjLosdtEGXkNkvt6d4">
        <mxGraphModel dx="1411" dy="437" grid="1" gridSize="10" guides="1" tooltips="1" connect="1" arrows="1" fold="1" page="1" pageScale="1" pageWidth="850" pageHeight="1100" math="0" shadow="0">
            <root>
                <mxCell id="0"/>
                <mxCell id="1" parent="0"/>
                <mxCell id="96T0zQpGf5X_AziwkyK0-2" value="" style="whiteSpace=wrap;html=1;aspect=fixed;" parent="1" vertex="1">
                    <mxGeometry x="-50" width="830" height="830" as="geometry"/>
                </mxCell>
                <mxCell id="96T0zQpGf5X_AziwkyK0-4" value="&lt;font style=&quot;font-size: 18px;&quot;&gt;&lt;b&gt;Customer use case diagram&lt;/b&gt;&lt;/font&gt;" style="text;html=1;align=center;verticalAlign=middle;whiteSpace=wrap;rounded=0;" parent="1" vertex="1">
                    <mxGeometry x="220" y="20" width="290" height="50" as="geometry"/>
                </mxCell>
                <mxCell id="96T0zQpGf5X_AziwkyK0-5" value="Customer" style="shape=umlActor;html=1;verticalLabelPosition=bottom;verticalAlign=top;align=center;" parent="1" vertex="1">
                    <mxGeometry x="-240" y="315" width="50" height="100" as="geometry"/>
                </mxCell>
                <mxCell id="96T0zQpGf5X_AziwkyK0-6" value="Authentication" style="ellipse;whiteSpace=wrap;html=1;" parent="1" vertex="1">
                    <mxGeometry x="610" y="330" width="140" height="70" as="geometry"/>
                </mxCell>
                <mxCell id="96T0zQpGf5X_AziwkyK0-7" value="Browse cars" style="ellipse;whiteSpace=wrap;html=1;" parent="1" vertex="1">
                    <mxGeometry x="80" y="160" width="140" height="70" as="geometry"/>
                </mxCell>
                <mxCell id="96T0zQpGf5X_AziwkyK0-8" value="Buy car" style="ellipse;whiteSpace=wrap;html=1;" parent="1" vertex="1">
                    <mxGeometry x="70" y="350" width="140" height="70" as="geometry"/>
                </mxCell>
                <mxCell id="96T0zQpGf5X_AziwkyK0-9" value="Track order" style="ellipse;whiteSpace=wrap;html=1;" parent="1" vertex="1">
                    <mxGeometry x="80" y="470" width="140" height="70" as="geometry"/>
                </mxCell>
                <mxCell id="96T0zQpGf5X_AziwkyK0-10" value="Manage profile" style="ellipse;whiteSpace=wrap;html=1;" parent="1" vertex="1">
                    <mxGeometry x="95" y="600" width="140" height="70" as="geometry"/>
                </mxCell>
                <mxCell id="96T0zQpGf5X_AziwkyK0-11" value="Search and filter" style="ellipse;whiteSpace=wrap;html=1;" parent="1" vertex="1">
                    <mxGeometry x="350" y="120" width="140" height="70" as="geometry"/>
                </mxCell>
                <mxCell id="96T0zQpGf5X_AziwkyK0-12" value="&amp;lt;&amp;lt;extend&amp;gt;&amp;gt;" style="edgeStyle=none;html=1;startArrow=open;endArrow=none;startSize=12;verticalAlign=bottom;dashed=1;labelBackgroundColor=none;rounded=0;entryX=0;entryY=0.5;entryDx=0;entryDy=0;" parent="1" source="96T0zQpGf5X_AziwkyK0-7" target="96T0zQpGf5X_AziwkyK0-11" edge="1">
                    <mxGeometry width="160" relative="1" as="geometry">
                        <mxPoint x="200" y="130" as="sourcePoint"/>
                        <mxPoint x="360" y="130" as="targetPoint"/>
                    </mxGeometry>
                </mxCell>
                <mxCell id="96T0zQpGf5X_AziwkyK0-13" value="Make payment" style="ellipse;whiteSpace=wrap;html=1;" parent="1" vertex="1">
                    <mxGeometry x="230" y="250" width="140" height="70" as="geometry"/>
                </mxCell>
                <mxCell id="96T0zQpGf5X_AziwkyK0-15" value="&amp;lt;&amp;lt;include&amp;gt;&amp;gt;" style="edgeStyle=none;html=1;endArrow=open;verticalAlign=bottom;dashed=1;labelBackgroundColor=none;rounded=0;entryX=0;entryY=0.5;entryDx=0;entryDy=0;" parent="1" source="96T0zQpGf5X_AziwkyK0-8" target="96T0zQpGf5X_AziwkyK0-13" edge="1">
                    <mxGeometry width="160" relative="1" as="geometry">
                        <mxPoint x="200" y="300" as="sourcePoint"/>
                        <mxPoint x="360" y="300" as="targetPoint"/>
                    </mxGeometry>
                </mxCell>
                <mxCell id="96T0zQpGf5X_AziwkyK0-17" value="&amp;lt;&amp;lt;include&amp;gt;&amp;gt;" style="edgeStyle=none;html=1;startArrow=open;endArrow=none;startSize=12;verticalAlign=bottom;dashed=1;labelBackgroundColor=none;rounded=0;entryX=0.993;entryY=0.329;entryDx=0;entryDy=0;entryPerimeter=0;" parent="1" source="96T0zQpGf5X_AziwkyK0-6" target="96T0zQpGf5X_AziwkyK0-10" edge="1">
                    <mxGeometry width="160" relative="1" as="geometry">
                        <mxPoint x="320" y="580" as="sourcePoint"/>
                        <mxPoint x="560" y="470" as="targetPoint"/>
                    </mxGeometry>
                </mxCell>
                <mxCell id="96T0zQpGf5X_AziwkyK0-19" value="&amp;lt;&amp;lt;include&amp;gt;&amp;gt;" style="edgeStyle=none;html=1;startArrow=open;endArrow=none;startSize=12;verticalAlign=bottom;dashed=1;labelBackgroundColor=none;rounded=0;entryX=1;entryY=0.5;entryDx=0;entryDy=0;" parent="1" source="96T0zQpGf5X_AziwkyK0-6" target="96T0zQpGf5X_AziwkyK0-9" edge="1">
                    <mxGeometry width="160" relative="1" as="geometry">
                        <mxPoint x="300" y="470" as="sourcePoint"/>
                        <mxPoint x="450" y="420" as="targetPoint"/>
                    </mxGeometry>
                </mxCell>
                <mxCell id="96T0zQpGf5X_AziwkyK0-20" value="&amp;lt;&amp;lt;include&amp;gt;&amp;gt;" style="edgeStyle=none;html=1;startArrow=open;endArrow=none;startSize=12;verticalAlign=bottom;dashed=1;labelBackgroundColor=none;rounded=0;entryX=1;entryY=0.5;entryDx=0;entryDy=0;" parent="1" source="96T0zQpGf5X_AziwkyK0-6" target="96T0zQpGf5X_AziwkyK0-8" edge="1">
                    <mxGeometry width="160" relative="1" as="geometry">
                        <mxPoint x="260" y="385" as="sourcePoint"/>
                        <mxPoint x="680" y="270" as="targetPoint"/>
                    </mxGeometry>
                </mxCell>
                <mxCell id="96T0zQpGf5X_AziwkyK0-21" value="&amp;lt;&amp;lt;include&amp;gt;&amp;gt;" style="edgeStyle=none;html=1;startArrow=open;endArrow=none;startSize=12;verticalAlign=bottom;dashed=1;labelBackgroundColor=none;rounded=0;entryX=0.95;entryY=0.643;entryDx=0;entryDy=0;entryPerimeter=0;" parent="1" source="96T0zQpGf5X_AziwkyK0-6" target="96T0zQpGf5X_AziwkyK0-7" edge="1">
                    <mxGeometry width="160" relative="1" as="geometry">
                        <mxPoint x="270" y="220" as="sourcePoint"/>
                        <mxPoint x="720" y="270" as="targetPoint"/>
                    </mxGeometry>
                </mxCell>
                <mxCell id="96T0zQpGf5X_AziwkyK0-22" value="" style="edgeStyle=none;html=1;endArrow=none;verticalAlign=bottom;rounded=0;entryX=0;entryY=0.5;entryDx=0;entryDy=0;" parent="1" source="96T0zQpGf5X_AziwkyK0-5" target="96T0zQpGf5X_AziwkyK0-7" edge="1">
                    <mxGeometry width="160" relative="1" as="geometry">
                        <mxPoint x="-190" y="365" as="sourcePoint"/>
                        <mxPoint x="-30" y="365" as="targetPoint"/>
                    </mxGeometry>
                </mxCell>
                <mxCell id="96T0zQpGf5X_AziwkyK0-24" value="" style="edgeStyle=none;html=1;endArrow=none;verticalAlign=bottom;rounded=0;" parent="1" source="96T0zQpGf5X_AziwkyK0-5" target="96T0zQpGf5X_AziwkyK0-8" edge="1">
                    <mxGeometry width="160" relative="1" as="geometry">
                        <mxPoint x="-190" y="365" as="sourcePoint"/>
                        <mxPoint x="-30" y="365" as="targetPoint"/>
                    </mxGeometry>
                </mxCell>
                <mxCell id="96T0zQpGf5X_AziwkyK0-25" value="" style="edgeStyle=none;html=1;endArrow=none;verticalAlign=bottom;rounded=0;entryX=0;entryY=0.429;entryDx=0;entryDy=0;entryPerimeter=0;" parent="1" source="96T0zQpGf5X_AziwkyK0-5" target="96T0zQpGf5X_AziwkyK0-9" edge="1">
                    <mxGeometry width="160" relative="1" as="geometry">
                        <mxPoint x="-190" y="365" as="sourcePoint"/>
                        <mxPoint x="-30" y="365" as="targetPoint"/>
                    </mxGeometry>
                </mxCell>
                <mxCell id="96T0zQpGf5X_AziwkyK0-26" value="" style="edgeStyle=none;html=1;endArrow=none;verticalAlign=bottom;rounded=0;entryX=0;entryY=0.5;entryDx=0;entryDy=0;" parent="1" target="96T0zQpGf5X_AziwkyK0-10" edge="1">
                    <mxGeometry width="160" relative="1" as="geometry">
                        <mxPoint x="-190" y="380" as="sourcePoint"/>
                        <mxPoint x="60" y="390" as="targetPoint"/>
                    </mxGeometry>
                </mxCell>
                <mxCell id="96T0zQpGf5X_AziwkyK0-28" style="edgeStyle=orthogonalEdgeStyle;rounded=0;orthogonalLoop=1;jettySize=auto;html=1;exitX=0.5;exitY=1;exitDx=0;exitDy=0;" parent="1" source="96T0zQpGf5X_AziwkyK0-2" target="96T0zQpGf5X_AziwkyK0-2" edge="1">
                    <mxGeometry relative="1" as="geometry"/>
                </mxCell>
            </root>
        </mxGraphModel>
    </diagram>
</mxfile>